<mxfile host="app.diagrams.net" modified="2021-02-15T00:58:04.228Z" agent="5.0 (Windows NT 10.0; Win64; x64) AppleWebKit/537.36 (KHTML, like Gecko) Chrome/88.0.4324.150 Safari/537.36" etag="4Cex4TdjlCqkhNC36rM7" version="14.3.1" type="github">
  <diagram id="XIra5QEa7usJCA-vKQKT" name="Page-1">
    <mxGraphModel dx="2310" dy="1963" grid="1" gridSize="10" guides="1" tooltips="1" connect="1" arrows="1" fold="1" page="1" pageScale="1" pageWidth="827" pageHeight="1169" math="0" shadow="0">
      <root>
        <mxCell id="0" />
        <mxCell id="1" parent="0" />
        <mxCell id="pbojLZw_-JZTCTOS8RLy-27" value="" style="rounded=0;whiteSpace=wrap;html=1;fillColor=#e1d5e7;strokeColor=#9673a6;" vertex="1" parent="1">
          <mxGeometry x="-210" y="-230" width="1210" height="1130" as="geometry" />
        </mxCell>
        <mxCell id="n0TWdMrDdvnq74pHfr2U-47" style="edgeStyle=none;shape=link;rounded=0;orthogonalLoop=1;jettySize=auto;html=1;exitX=0.5;exitY=1;exitDx=0;exitDy=0;entryX=0.5;entryY=0;entryDx=0;entryDy=0;width=0;" parent="1" source="n0TWdMrDdvnq74pHfr2U-1" target="n0TWdMrDdvnq74pHfr2U-33" edge="1">
          <mxGeometry relative="1" as="geometry" />
        </mxCell>
        <mxCell id="n0TWdMrDdvnq74pHfr2U-1" value="class" style="rounded=0;whiteSpace=wrap;html=1;" parent="1" vertex="1">
          <mxGeometry x="610" y="320" width="120" height="60" as="geometry" />
        </mxCell>
        <mxCell id="n0TWdMrDdvnq74pHfr2U-2" value="&lt;u&gt;ID&lt;/u&gt;" style="ellipse;whiteSpace=wrap;html=1;" parent="1" vertex="1">
          <mxGeometry x="-60" y="260" width="80" height="40" as="geometry" />
        </mxCell>
        <mxCell id="n0TWdMrDdvnq74pHfr2U-3" value="name" style="ellipse;whiteSpace=wrap;html=1;" parent="1" vertex="1">
          <mxGeometry x="-30" y="380" width="80" height="40" as="geometry" />
        </mxCell>
        <mxCell id="n0TWdMrDdvnq74pHfr2U-4" value="age" style="ellipse;whiteSpace=wrap;html=1;" parent="1" vertex="1">
          <mxGeometry x="-60" y="320" width="80" height="40" as="geometry" />
        </mxCell>
        <mxCell id="n0TWdMrDdvnq74pHfr2U-6" value="&lt;u&gt;ID&lt;/u&gt;" style="ellipse;whiteSpace=wrap;html=1;" parent="1" vertex="1">
          <mxGeometry x="830" y="280" width="80" height="40" as="geometry" />
        </mxCell>
        <mxCell id="n0TWdMrDdvnq74pHfr2U-7" value="name" style="ellipse;whiteSpace=wrap;html=1;" parent="1" vertex="1">
          <mxGeometry x="790" y="430" width="80" height="40" as="geometry" />
        </mxCell>
        <mxCell id="n0TWdMrDdvnq74pHfr2U-8" value="code" style="ellipse;whiteSpace=wrap;html=1;" parent="1" vertex="1">
          <mxGeometry x="830" y="350" width="80" height="40" as="geometry" />
        </mxCell>
        <mxCell id="n0TWdMrDdvnq74pHfr2U-14" style="rounded=0;orthogonalLoop=1;jettySize=auto;html=1;entryX=0;entryY=0.5;entryDx=0;entryDy=0;shape=link;width=1;" parent="1" source="n0TWdMrDdvnq74pHfr2U-12" target="n0TWdMrDdvnq74pHfr2U-13" edge="1">
          <mxGeometry relative="1" as="geometry" />
        </mxCell>
        <mxCell id="n0TWdMrDdvnq74pHfr2U-50" style="edgeStyle=none;shape=link;rounded=0;orthogonalLoop=1;jettySize=auto;html=1;exitX=0.5;exitY=1;exitDx=0;exitDy=0;entryX=0.5;entryY=0;entryDx=0;entryDy=0;width=0;" parent="1" source="n0TWdMrDdvnq74pHfr2U-12" target="n0TWdMrDdvnq74pHfr2U-32" edge="1">
          <mxGeometry relative="1" as="geometry" />
        </mxCell>
        <mxCell id="n0TWdMrDdvnq74pHfr2U-12" value="user" style="rounded=0;whiteSpace=wrap;html=1;" parent="1" vertex="1">
          <mxGeometry x="100" y="320" width="120" height="60" as="geometry" />
        </mxCell>
        <mxCell id="n0TWdMrDdvnq74pHfr2U-16" style="rounded=0;orthogonalLoop=1;jettySize=auto;html=1;exitX=1;exitY=0.5;exitDx=0;exitDy=0;shape=link;width=0;" parent="1" source="n0TWdMrDdvnq74pHfr2U-13" target="n0TWdMrDdvnq74pHfr2U-1" edge="1">
          <mxGeometry relative="1" as="geometry" />
        </mxCell>
        <mxCell id="n0TWdMrDdvnq74pHfr2U-13" value="Join" style="rhombus;whiteSpace=wrap;html=1;" parent="1" vertex="1">
          <mxGeometry x="349" y="320" width="130" height="60" as="geometry" />
        </mxCell>
        <mxCell id="n0TWdMrDdvnq74pHfr2U-19" value="Post" style="rounded=0;whiteSpace=wrap;html=1;" parent="1" vertex="1">
          <mxGeometry x="354" y="580" width="120" height="60" as="geometry" />
        </mxCell>
        <mxCell id="n0TWdMrDdvnq74pHfr2U-20" value="discription" style="ellipse;whiteSpace=wrap;html=1;" parent="1" vertex="1">
          <mxGeometry x="500" y="750" width="80" height="40" as="geometry" />
        </mxCell>
        <mxCell id="n0TWdMrDdvnq74pHfr2U-21" value="&lt;u&gt;Post id&lt;/u&gt;" style="ellipse;whiteSpace=wrap;html=1;" parent="1" vertex="1">
          <mxGeometry x="374" y="750" width="80" height="40" as="geometry" />
        </mxCell>
        <mxCell id="n0TWdMrDdvnq74pHfr2U-22" value="date" style="ellipse;whiteSpace=wrap;html=1;" parent="1" vertex="1">
          <mxGeometry x="560" y="690" width="80" height="40" as="geometry" />
        </mxCell>
        <mxCell id="n0TWdMrDdvnq74pHfr2U-24" value="user id" style="ellipse;whiteSpace=wrap;html=1;" parent="1" vertex="1">
          <mxGeometry x="180" y="690" width="80" height="40" as="geometry" />
        </mxCell>
        <mxCell id="n0TWdMrDdvnq74pHfr2U-27" value="class admin" style="rounded=0;whiteSpace=wrap;html=1;" parent="1" vertex="1">
          <mxGeometry x="365" y="-70" width="120" height="60" as="geometry" />
        </mxCell>
        <mxCell id="n0TWdMrDdvnq74pHfr2U-28" value="user ID" style="ellipse;whiteSpace=wrap;html=1;" parent="1" vertex="1">
          <mxGeometry x="294" y="-140" width="80" height="40" as="geometry" />
        </mxCell>
        <mxCell id="n0TWdMrDdvnq74pHfr2U-29" value="class id" style="ellipse;whiteSpace=wrap;html=1;" parent="1" vertex="1">
          <mxGeometry x="385" y="-180" width="80" height="40" as="geometry" />
        </mxCell>
        <mxCell id="n0TWdMrDdvnq74pHfr2U-30" value="class id" style="ellipse;whiteSpace=wrap;html=1;" parent="1" vertex="1">
          <mxGeometry x="250" y="750" width="80" height="40" as="geometry" />
        </mxCell>
        <mxCell id="n0TWdMrDdvnq74pHfr2U-31" value="is admin" style="ellipse;whiteSpace=wrap;html=1;" parent="1" vertex="1">
          <mxGeometry x="470" y="-140" width="80" height="40" as="geometry" />
        </mxCell>
        <mxCell id="n0TWdMrDdvnq74pHfr2U-51" style="edgeStyle=none;shape=link;rounded=0;orthogonalLoop=1;jettySize=auto;html=1;exitX=0.5;exitY=1;exitDx=0;exitDy=0;entryX=0;entryY=0.5;entryDx=0;entryDy=0;width=0;" parent="1" source="n0TWdMrDdvnq74pHfr2U-32" target="n0TWdMrDdvnq74pHfr2U-19" edge="1">
          <mxGeometry relative="1" as="geometry" />
        </mxCell>
        <mxCell id="n0TWdMrDdvnq74pHfr2U-32" value="upload" style="rhombus;whiteSpace=wrap;html=1;" parent="1" vertex="1">
          <mxGeometry x="95" y="460" width="130" height="60" as="geometry" />
        </mxCell>
        <mxCell id="n0TWdMrDdvnq74pHfr2U-49" style="edgeStyle=none;shape=link;rounded=0;orthogonalLoop=1;jettySize=auto;html=1;exitX=0.5;exitY=1;exitDx=0;exitDy=0;entryX=1;entryY=0.5;entryDx=0;entryDy=0;width=0;" parent="1" source="n0TWdMrDdvnq74pHfr2U-33" target="n0TWdMrDdvnq74pHfr2U-19" edge="1">
          <mxGeometry relative="1" as="geometry" />
        </mxCell>
        <mxCell id="n0TWdMrDdvnq74pHfr2U-33" value="contain of" style="rhombus;whiteSpace=wrap;html=1;" parent="1" vertex="1">
          <mxGeometry x="605" y="460" width="130" height="60" as="geometry" />
        </mxCell>
        <mxCell id="n0TWdMrDdvnq74pHfr2U-45" style="edgeStyle=none;shape=link;rounded=0;orthogonalLoop=1;jettySize=auto;html=1;exitX=0.5;exitY=0;exitDx=0;exitDy=0;entryX=1;entryY=0.5;entryDx=0;entryDy=0;width=-1;" parent="1" source="n0TWdMrDdvnq74pHfr2U-34" target="n0TWdMrDdvnq74pHfr2U-27" edge="1">
          <mxGeometry relative="1" as="geometry" />
        </mxCell>
        <mxCell id="n0TWdMrDdvnq74pHfr2U-46" style="edgeStyle=none;shape=link;rounded=0;orthogonalLoop=1;jettySize=auto;html=1;exitX=0.5;exitY=1;exitDx=0;exitDy=0;entryX=0.5;entryY=0;entryDx=0;entryDy=0;width=-1;" parent="1" source="n0TWdMrDdvnq74pHfr2U-34" target="n0TWdMrDdvnq74pHfr2U-1" edge="1">
          <mxGeometry relative="1" as="geometry" />
        </mxCell>
        <mxCell id="n0TWdMrDdvnq74pHfr2U-34" value="control" style="rhombus;whiteSpace=wrap;html=1;" parent="1" vertex="1">
          <mxGeometry x="600" y="80" width="130" height="60" as="geometry" />
        </mxCell>
        <mxCell id="n0TWdMrDdvnq74pHfr2U-43" style="edgeStyle=none;shape=link;rounded=0;orthogonalLoop=1;jettySize=auto;html=1;exitX=0.5;exitY=1;exitDx=0;exitDy=0;width=1;" parent="1" source="n0TWdMrDdvnq74pHfr2U-36" target="n0TWdMrDdvnq74pHfr2U-12" edge="1">
          <mxGeometry relative="1" as="geometry" />
        </mxCell>
        <mxCell id="n0TWdMrDdvnq74pHfr2U-44" style="edgeStyle=none;shape=link;rounded=0;orthogonalLoop=1;jettySize=auto;html=1;exitX=0.5;exitY=0;exitDx=0;exitDy=0;entryX=0;entryY=0.5;entryDx=0;entryDy=0;width=-1;" parent="1" source="n0TWdMrDdvnq74pHfr2U-36" target="n0TWdMrDdvnq74pHfr2U-27" edge="1">
          <mxGeometry relative="1" as="geometry" />
        </mxCell>
        <mxCell id="n0TWdMrDdvnq74pHfr2U-36" value="can be" style="rhombus;whiteSpace=wrap;html=1;" parent="1" vertex="1">
          <mxGeometry x="95" y="80" width="130" height="60" as="geometry" />
        </mxCell>
        <mxCell id="n0TWdMrDdvnq74pHfr2U-52" style="edgeStyle=none;shape=link;rounded=0;orthogonalLoop=1;jettySize=auto;html=1;exitX=1;exitY=0.5;exitDx=0;exitDy=0;width=-1;entryX=0;entryY=0.75;entryDx=0;entryDy=0;" parent="1" source="n0TWdMrDdvnq74pHfr2U-42" target="n0TWdMrDdvnq74pHfr2U-19" edge="1">
          <mxGeometry relative="1" as="geometry">
            <mxPoint x="330" y="630" as="targetPoint" />
          </mxGeometry>
        </mxCell>
        <mxCell id="n0TWdMrDdvnq74pHfr2U-42" value="Control" style="rhombus;whiteSpace=wrap;html=1;" parent="1" vertex="1">
          <mxGeometry x="-140" y="585" width="130" height="60" as="geometry" />
        </mxCell>
        <mxCell id="n0TWdMrDdvnq74pHfr2U-57" value="" style="endArrow=none;html=1;entryX=0;entryY=0.25;entryDx=0;entryDy=0;" parent="1" target="n0TWdMrDdvnq74pHfr2U-27" edge="1">
          <mxGeometry width="50" height="50" relative="1" as="geometry">
            <mxPoint x="-80" y="-55" as="sourcePoint" />
            <mxPoint x="10" y="-190" as="targetPoint" />
          </mxGeometry>
        </mxCell>
        <mxCell id="n0TWdMrDdvnq74pHfr2U-58" value="" style="endArrow=none;html=1;exitX=0.5;exitY=0;exitDx=0;exitDy=0;" parent="1" source="n0TWdMrDdvnq74pHfr2U-42" edge="1">
          <mxGeometry width="50" height="50" relative="1" as="geometry">
            <mxPoint x="-40" y="360" as="sourcePoint" />
            <mxPoint x="-75" y="-60" as="targetPoint" />
          </mxGeometry>
        </mxCell>
        <mxCell id="n0TWdMrDdvnq74pHfr2U-60" value="" style="endArrow=none;html=1;exitX=1;exitY=0.5;exitDx=0;exitDy=0;entryX=0;entryY=0.25;entryDx=0;entryDy=0;" parent="1" source="n0TWdMrDdvnq74pHfr2U-2" target="n0TWdMrDdvnq74pHfr2U-12" edge="1">
          <mxGeometry width="50" height="50" relative="1" as="geometry">
            <mxPoint x="220" y="450" as="sourcePoint" />
            <mxPoint x="270" y="400" as="targetPoint" />
          </mxGeometry>
        </mxCell>
        <mxCell id="n0TWdMrDdvnq74pHfr2U-61" value="" style="endArrow=none;html=1;exitX=1;exitY=0.5;exitDx=0;exitDy=0;entryX=0;entryY=0.5;entryDx=0;entryDy=0;" parent="1" source="n0TWdMrDdvnq74pHfr2U-4" target="n0TWdMrDdvnq74pHfr2U-12" edge="1">
          <mxGeometry width="50" height="50" relative="1" as="geometry">
            <mxPoint x="220" y="450" as="sourcePoint" />
            <mxPoint x="270" y="400" as="targetPoint" />
          </mxGeometry>
        </mxCell>
        <mxCell id="n0TWdMrDdvnq74pHfr2U-62" value="" style="endArrow=none;html=1;exitX=1;exitY=0.5;exitDx=0;exitDy=0;entryX=0;entryY=0.75;entryDx=0;entryDy=0;" parent="1" source="n0TWdMrDdvnq74pHfr2U-3" target="n0TWdMrDdvnq74pHfr2U-12" edge="1">
          <mxGeometry width="50" height="50" relative="1" as="geometry">
            <mxPoint x="220" y="450" as="sourcePoint" />
            <mxPoint x="270" y="400" as="targetPoint" />
          </mxGeometry>
        </mxCell>
        <mxCell id="n0TWdMrDdvnq74pHfr2U-63" value="" style="endArrow=none;html=1;entryX=0;entryY=1;entryDx=0;entryDy=0;exitX=0.5;exitY=0;exitDx=0;exitDy=0;" parent="1" source="n0TWdMrDdvnq74pHfr2U-24" target="n0TWdMrDdvnq74pHfr2U-19" edge="1">
          <mxGeometry width="50" height="50" relative="1" as="geometry">
            <mxPoint x="270" y="870" as="sourcePoint" />
            <mxPoint x="320" y="820" as="targetPoint" />
          </mxGeometry>
        </mxCell>
        <mxCell id="n0TWdMrDdvnq74pHfr2U-64" value="" style="endArrow=none;html=1;entryX=0.25;entryY=1;entryDx=0;entryDy=0;exitX=0.5;exitY=0;exitDx=0;exitDy=0;" parent="1" source="n0TWdMrDdvnq74pHfr2U-30" target="n0TWdMrDdvnq74pHfr2U-19" edge="1">
          <mxGeometry width="50" height="50" relative="1" as="geometry">
            <mxPoint x="220" y="750" as="sourcePoint" />
            <mxPoint x="270" y="700" as="targetPoint" />
          </mxGeometry>
        </mxCell>
        <mxCell id="n0TWdMrDdvnq74pHfr2U-65" value="" style="endArrow=none;html=1;exitX=0.5;exitY=0;exitDx=0;exitDy=0;" parent="1" source="n0TWdMrDdvnq74pHfr2U-21" target="n0TWdMrDdvnq74pHfr2U-19" edge="1">
          <mxGeometry width="50" height="50" relative="1" as="geometry">
            <mxPoint x="220" y="750" as="sourcePoint" />
            <mxPoint x="270" y="700" as="targetPoint" />
          </mxGeometry>
        </mxCell>
        <mxCell id="n0TWdMrDdvnq74pHfr2U-66" value="" style="endArrow=none;html=1;exitX=0.5;exitY=0;exitDx=0;exitDy=0;entryX=0.75;entryY=1;entryDx=0;entryDy=0;" parent="1" source="n0TWdMrDdvnq74pHfr2U-20" target="n0TWdMrDdvnq74pHfr2U-19" edge="1">
          <mxGeometry width="50" height="50" relative="1" as="geometry">
            <mxPoint x="220" y="750" as="sourcePoint" />
            <mxPoint x="270" y="700" as="targetPoint" />
          </mxGeometry>
        </mxCell>
        <mxCell id="n0TWdMrDdvnq74pHfr2U-67" value="" style="endArrow=none;html=1;entryX=1;entryY=1;entryDx=0;entryDy=0;exitX=0.403;exitY=0;exitDx=0;exitDy=0;exitPerimeter=0;" parent="1" source="n0TWdMrDdvnq74pHfr2U-22" target="n0TWdMrDdvnq74pHfr2U-19" edge="1">
          <mxGeometry width="50" height="50" relative="1" as="geometry">
            <mxPoint x="220" y="750" as="sourcePoint" />
            <mxPoint x="270" y="700" as="targetPoint" />
          </mxGeometry>
        </mxCell>
        <mxCell id="n0TWdMrDdvnq74pHfr2U-68" value="" style="endArrow=none;html=1;exitX=0;exitY=0;exitDx=0;exitDy=0;entryX=0.5;entryY=1;entryDx=0;entryDy=0;" parent="1" source="n0TWdMrDdvnq74pHfr2U-27" target="n0TWdMrDdvnq74pHfr2U-28" edge="1">
          <mxGeometry width="50" height="50" relative="1" as="geometry">
            <mxPoint x="220" y="-50" as="sourcePoint" />
            <mxPoint x="270" y="-100" as="targetPoint" />
          </mxGeometry>
        </mxCell>
        <mxCell id="n0TWdMrDdvnq74pHfr2U-69" value="" style="endArrow=none;html=1;exitX=0.5;exitY=0;exitDx=0;exitDy=0;entryX=0.5;entryY=1;entryDx=0;entryDy=0;" parent="1" source="n0TWdMrDdvnq74pHfr2U-27" target="n0TWdMrDdvnq74pHfr2U-29" edge="1">
          <mxGeometry width="50" height="50" relative="1" as="geometry">
            <mxPoint x="220" y="-50" as="sourcePoint" />
            <mxPoint x="270" y="-100" as="targetPoint" />
          </mxGeometry>
        </mxCell>
        <mxCell id="n0TWdMrDdvnq74pHfr2U-70" value="" style="endArrow=none;html=1;exitX=0.75;exitY=0;exitDx=0;exitDy=0;entryX=0.5;entryY=1;entryDx=0;entryDy=0;" parent="1" source="n0TWdMrDdvnq74pHfr2U-27" target="n0TWdMrDdvnq74pHfr2U-31" edge="1">
          <mxGeometry width="50" height="50" relative="1" as="geometry">
            <mxPoint x="220" y="-50" as="sourcePoint" />
            <mxPoint x="270" y="-100" as="targetPoint" />
          </mxGeometry>
        </mxCell>
        <mxCell id="n0TWdMrDdvnq74pHfr2U-72" value="" style="endArrow=none;html=1;exitX=0.815;exitY=-0.007;exitDx=0;exitDy=0;exitPerimeter=0;entryX=0.5;entryY=1;entryDx=0;entryDy=0;" parent="1" source="n0TWdMrDdvnq74pHfr2U-1" target="n0TWdMrDdvnq74pHfr2U-10" edge="1">
          <mxGeometry width="50" height="50" relative="1" as="geometry">
            <mxPoint x="530" y="350" as="sourcePoint" />
            <mxPoint x="580" y="300" as="targetPoint" />
          </mxGeometry>
        </mxCell>
        <mxCell id="n0TWdMrDdvnq74pHfr2U-73" value="" style="endArrow=none;html=1;entryX=0;entryY=0.5;entryDx=0;entryDy=0;exitX=1;exitY=0;exitDx=0;exitDy=0;" parent="1" source="n0TWdMrDdvnq74pHfr2U-1" target="n0TWdMrDdvnq74pHfr2U-6" edge="1">
          <mxGeometry width="50" height="50" relative="1" as="geometry">
            <mxPoint x="530" y="350" as="sourcePoint" />
            <mxPoint x="580" y="300" as="targetPoint" />
          </mxGeometry>
        </mxCell>
        <mxCell id="n0TWdMrDdvnq74pHfr2U-74" value="" style="endArrow=none;html=1;exitX=1;exitY=0.5;exitDx=0;exitDy=0;entryX=0;entryY=0.5;entryDx=0;entryDy=0;" parent="1" source="n0TWdMrDdvnq74pHfr2U-1" target="n0TWdMrDdvnq74pHfr2U-8" edge="1">
          <mxGeometry width="50" height="50" relative="1" as="geometry">
            <mxPoint x="530" y="350" as="sourcePoint" />
            <mxPoint x="580" y="300" as="targetPoint" />
          </mxGeometry>
        </mxCell>
        <mxCell id="n0TWdMrDdvnq74pHfr2U-75" value="" style="endArrow=none;html=1;exitX=1;exitY=1;exitDx=0;exitDy=0;entryX=0.5;entryY=0;entryDx=0;entryDy=0;" parent="1" source="n0TWdMrDdvnq74pHfr2U-1" target="n0TWdMrDdvnq74pHfr2U-7" edge="1">
          <mxGeometry width="50" height="50" relative="1" as="geometry">
            <mxPoint x="530" y="350" as="sourcePoint" />
            <mxPoint x="580" y="300" as="targetPoint" />
          </mxGeometry>
        </mxCell>
        <mxCell id="pbojLZw_-JZTCTOS8RLy-1" value="&lt;u&gt;admin ID&lt;/u&gt;" style="ellipse;whiteSpace=wrap;html=1;" vertex="1" parent="1">
          <mxGeometry x="580" y="-140" width="80" height="40" as="geometry" />
        </mxCell>
        <mxCell id="pbojLZw_-JZTCTOS8RLy-3" value="" style="endArrow=none;html=1;entryX=0.5;entryY=1;entryDx=0;entryDy=0;exitX=1;exitY=0.25;exitDx=0;exitDy=0;" edge="1" parent="1" source="n0TWdMrDdvnq74pHfr2U-27" target="pbojLZw_-JZTCTOS8RLy-1">
          <mxGeometry width="50" height="50" relative="1" as="geometry">
            <mxPoint x="350" y="100" as="sourcePoint" />
            <mxPoint x="400" y="50" as="targetPoint" />
          </mxGeometry>
        </mxCell>
        <mxCell id="pbojLZw_-JZTCTOS8RLy-7" value="" style="group" vertex="1" connectable="0" parent="1">
          <mxGeometry x="400" y="-150" width="50" height="5" as="geometry" />
        </mxCell>
        <mxCell id="pbojLZw_-JZTCTOS8RLy-4" value="" style="endArrow=none;html=1;" edge="1" parent="pbojLZw_-JZTCTOS8RLy-7">
          <mxGeometry width="50" height="50" as="geometry">
            <mxPoint as="sourcePoint" />
            <mxPoint x="50" as="targetPoint" />
          </mxGeometry>
        </mxCell>
        <mxCell id="pbojLZw_-JZTCTOS8RLy-5" value="" style="endArrow=none;html=1;" edge="1" parent="pbojLZw_-JZTCTOS8RLy-7">
          <mxGeometry y="-5" width="50" height="50" as="geometry">
            <mxPoint y="5" as="sourcePoint" />
            <mxPoint x="50" y="5" as="targetPoint" />
          </mxGeometry>
        </mxCell>
        <mxCell id="pbojLZw_-JZTCTOS8RLy-8" value="" style="group" vertex="1" connectable="0" parent="1">
          <mxGeometry x="310" y="-110" width="50" height="5" as="geometry" />
        </mxCell>
        <mxCell id="pbojLZw_-JZTCTOS8RLy-9" value="" style="endArrow=none;html=1;" edge="1" parent="pbojLZw_-JZTCTOS8RLy-8">
          <mxGeometry width="50" height="50" as="geometry">
            <mxPoint as="sourcePoint" />
            <mxPoint x="50" as="targetPoint" />
          </mxGeometry>
        </mxCell>
        <mxCell id="pbojLZw_-JZTCTOS8RLy-10" value="" style="endArrow=none;html=1;" edge="1" parent="pbojLZw_-JZTCTOS8RLy-8">
          <mxGeometry y="-5" width="50" height="50" as="geometry">
            <mxPoint y="5" as="sourcePoint" />
            <mxPoint x="50" y="5" as="targetPoint" />
          </mxGeometry>
        </mxCell>
        <mxCell id="pbojLZw_-JZTCTOS8RLy-11" value="" style="group" vertex="1" connectable="0" parent="1">
          <mxGeometry x="200" y="720" width="50" height="5" as="geometry" />
        </mxCell>
        <mxCell id="pbojLZw_-JZTCTOS8RLy-12" value="" style="endArrow=none;html=1;" edge="1" parent="pbojLZw_-JZTCTOS8RLy-11">
          <mxGeometry width="50" height="50" as="geometry">
            <mxPoint as="sourcePoint" />
            <mxPoint x="50" as="targetPoint" />
          </mxGeometry>
        </mxCell>
        <mxCell id="pbojLZw_-JZTCTOS8RLy-13" value="" style="endArrow=none;html=1;" edge="1" parent="pbojLZw_-JZTCTOS8RLy-11">
          <mxGeometry y="-5" width="50" height="50" as="geometry">
            <mxPoint y="5" as="sourcePoint" />
            <mxPoint x="50" y="5" as="targetPoint" />
          </mxGeometry>
        </mxCell>
        <mxCell id="pbojLZw_-JZTCTOS8RLy-14" value="" style="group" vertex="1" connectable="0" parent="1">
          <mxGeometry x="270" y="780" width="50" height="5" as="geometry" />
        </mxCell>
        <mxCell id="pbojLZw_-JZTCTOS8RLy-15" value="" style="endArrow=none;html=1;" edge="1" parent="pbojLZw_-JZTCTOS8RLy-14">
          <mxGeometry width="50" height="50" as="geometry">
            <mxPoint as="sourcePoint" />
            <mxPoint x="50" as="targetPoint" />
          </mxGeometry>
        </mxCell>
        <mxCell id="pbojLZw_-JZTCTOS8RLy-16" value="" style="endArrow=none;html=1;" edge="1" parent="pbojLZw_-JZTCTOS8RLy-14">
          <mxGeometry y="-5" width="50" height="50" as="geometry">
            <mxPoint y="5" as="sourcePoint" />
            <mxPoint x="50" y="5" as="targetPoint" />
          </mxGeometry>
        </mxCell>
        <mxCell id="pbojLZw_-JZTCTOS8RLy-20" value="user id" style="ellipse;whiteSpace=wrap;html=1;" vertex="1" parent="1">
          <mxGeometry x="715" y="170" width="80" height="40" as="geometry" />
        </mxCell>
        <mxCell id="pbojLZw_-JZTCTOS8RLy-21" value="" style="group" vertex="1" connectable="0" parent="1">
          <mxGeometry x="810" y="200" width="80" height="40" as="geometry" />
        </mxCell>
        <mxCell id="n0TWdMrDdvnq74pHfr2U-10" value="Post ID" style="ellipse;whiteSpace=wrap;html=1;" parent="pbojLZw_-JZTCTOS8RLy-21" vertex="1">
          <mxGeometry width="80" height="40" as="geometry" />
        </mxCell>
        <mxCell id="pbojLZw_-JZTCTOS8RLy-17" value="" style="group" vertex="1" connectable="0" parent="pbojLZw_-JZTCTOS8RLy-21">
          <mxGeometry x="15" y="30" width="50" height="5" as="geometry" />
        </mxCell>
        <mxCell id="pbojLZw_-JZTCTOS8RLy-18" value="" style="endArrow=none;html=1;" edge="1" parent="pbojLZw_-JZTCTOS8RLy-17">
          <mxGeometry width="50" height="50" as="geometry">
            <mxPoint as="sourcePoint" />
            <mxPoint x="50" as="targetPoint" />
          </mxGeometry>
        </mxCell>
        <mxCell id="pbojLZw_-JZTCTOS8RLy-19" value="" style="endArrow=none;html=1;" edge="1" parent="pbojLZw_-JZTCTOS8RLy-17">
          <mxGeometry y="-5" width="50" height="50" as="geometry">
            <mxPoint y="5" as="sourcePoint" />
            <mxPoint x="50" y="5" as="targetPoint" />
          </mxGeometry>
        </mxCell>
        <mxCell id="pbojLZw_-JZTCTOS8RLy-22" value="" style="group" vertex="1" connectable="0" parent="1">
          <mxGeometry x="730" y="200" width="50" height="5" as="geometry" />
        </mxCell>
        <mxCell id="pbojLZw_-JZTCTOS8RLy-23" value="" style="endArrow=none;html=1;" edge="1" parent="pbojLZw_-JZTCTOS8RLy-22">
          <mxGeometry width="50" height="50" as="geometry">
            <mxPoint as="sourcePoint" />
            <mxPoint x="50" as="targetPoint" />
          </mxGeometry>
        </mxCell>
        <mxCell id="pbojLZw_-JZTCTOS8RLy-24" value="" style="endArrow=none;html=1;" edge="1" parent="pbojLZw_-JZTCTOS8RLy-22">
          <mxGeometry y="-5" width="50" height="50" as="geometry">
            <mxPoint y="5" as="sourcePoint" />
            <mxPoint x="50" y="5" as="targetPoint" />
          </mxGeometry>
        </mxCell>
        <mxCell id="pbojLZw_-JZTCTOS8RLy-26" value="" style="endArrow=none;html=1;entryX=0.5;entryY=1;entryDx=0;entryDy=0;exitX=0.75;exitY=0;exitDx=0;exitDy=0;" edge="1" parent="1" source="n0TWdMrDdvnq74pHfr2U-1" target="pbojLZw_-JZTCTOS8RLy-20">
          <mxGeometry width="50" height="50" relative="1" as="geometry">
            <mxPoint x="520" y="290" as="sourcePoint" />
            <mxPoint x="570" y="240" as="targetPoint" />
          </mxGeometry>
        </mxCell>
      </root>
    </mxGraphModel>
  </diagram>
</mxfile>
